<svg xmlns="http://www.w3.org/2000/svg" xmlns:xlink="http://www.w3.org/1999/xlink" width="565" zoomAndPan="magnify" viewBox="0 0 423.75 456.749982" height="609" preserveAspectRatio="xMidYMid meet" version="1.0"><defs><g/></defs><g fill="#ffffff" fill-opacity="1"><g transform="translate(189.890854, 200.944487)"><g><path d="M 30.1875 -34.265625 L 30.1875 0 L 25.71875 0 L 25.71875 -15.53125 L 8.265625 -15.53125 L 8.265625 0 L 3.78125 0 L 3.78125 -34.265625 L 8.265625 -34.265625 L 8.265625 -19.21875 L 25.71875 -19.21875 L 25.71875 -34.265625 Z M 30.1875 -34.265625 "/></g></g></g><g fill="#ffffff" fill-opacity="1"><g transform="translate(223.91392, 200.944487)"><g><path d="M 24.875 -34.265625 L 24.875 -30.640625 L 15.53125 -30.640625 L 15.53125 0 L 11.0625 0 L 11.0625 -30.640625 L 1.671875 -30.640625 L 1.671875 -34.265625 Z M 24.875 -34.265625 "/></g></g></g><g fill="#ffffff" fill-opacity="1"><g transform="translate(250.512881, 200.944487)"><g><path d="M 38.546875 -34.03125 L 38.546875 0 L 34.078125 0 L 34.078125 -25.375 L 22.765625 0 L 19.625 0 L 8.265625 -25.421875 L 8.265625 0 L 3.78125 0 L 3.78125 -34.03125 L 8.609375 -34.03125 L 21.1875 -5.90625 L 33.78125 -34.03125 Z M 38.546875 -34.03125 "/></g></g></g><g fill="#ffffff" fill-opacity="1"><g transform="translate(292.845051, 200.944487)"><g><path d="M 8.265625 -3.640625 L 20.265625 -3.640625 L 20.265625 0 L 3.78125 0 L 3.78125 -34.265625 L 8.265625 -34.265625 Z M 8.265625 -3.640625 "/></g></g></g><g fill="#ffffff" fill-opacity="1"><g transform="translate(199.477038, 149.810139)"><g><path d="M 13.1875 -21.484375 L 13.1875 -5.609375 C 13.1875 -3.835938 12.640625 -2.421875 11.546875 -1.359375 C 10.460938 -0.304688 9.03125 0.21875 7.25 0.21875 C 5.4375 0.21875 3.984375 -0.316406 2.890625 -1.390625 C 1.804688 -2.472656 1.265625 -3.953125 1.265625 -5.828125 L 4.0625 -5.828125 C 4.082031 -4.773438 4.351562 -3.921875 4.875 -3.265625 C 5.40625 -2.609375 6.195312 -2.28125 7.25 -2.28125 C 8.289062 -2.28125 9.066406 -2.59375 9.578125 -3.21875 C 10.097656 -3.84375 10.359375 -4.640625 10.359375 -5.609375 L 10.359375 -21.484375 Z M 13.1875 -21.484375 "/></g></g></g><g fill="#ffffff" fill-opacity="1"><g transform="translate(215.808364, 149.810139)"><g><path d="M 15.078125 -4.78125 L 5.703125 -4.78125 L 3.984375 0 L 1.015625 0 L 8.78125 -21.359375 L 12.015625 -21.359375 L 19.765625 0 L 16.796875 0 Z M 14.28125 -7.0625 L 10.390625 -17.90625 L 6.5 -7.0625 Z M 14.28125 -7.0625 "/></g></g></g><g fill="#ffffff" fill-opacity="1"><g transform="translate(236.576876, 149.810139)"><g><path d="M 20.125 -21.484375 L 12.015625 0 L 8.78125 0 L 0.671875 -21.484375 L 3.671875 -21.484375 L 10.421875 -2.953125 L 17.171875 -21.484375 Z M 20.125 -21.484375 "/></g></g></g><g fill="#ffffff" fill-opacity="1"><g transform="translate(257.407012, 149.810139)"><g><path d="M 15.078125 -4.78125 L 5.703125 -4.78125 L 3.984375 0 L 1.015625 0 L 8.78125 -21.359375 L 12.015625 -21.359375 L 19.765625 0 L 16.796875 0 Z M 14.28125 -7.0625 L 10.390625 -17.90625 L 6.5 -7.0625 Z M 14.28125 -7.0625 "/></g></g></g><g fill="#ffffff" fill-opacity="1"><g transform="translate(278.175524, 149.810139)"><g><path d="M 9.1875 0.21875 C 7.769531 0.21875 6.5 -0.03125 5.375 -0.53125 C 4.257812 -1.039062 3.378906 -1.742188 2.734375 -2.640625 C 2.097656 -3.535156 1.769531 -4.566406 1.75 -5.734375 L 4.75 -5.734375 C 4.851562 -4.722656 5.269531 -3.875 6 -3.1875 C 6.726562 -2.5 7.789062 -2.15625 9.1875 -2.15625 C 10.519531 -2.15625 11.570312 -2.488281 12.34375 -3.15625 C 13.113281 -3.820312 13.5 -4.679688 13.5 -5.734375 C 13.5 -6.554688 13.269531 -7.222656 12.8125 -7.734375 C 12.363281 -8.253906 11.800781 -8.644531 11.125 -8.90625 C 10.445312 -9.175781 9.535156 -9.460938 8.390625 -9.765625 C 6.972656 -10.140625 5.835938 -10.507812 4.984375 -10.875 C 4.128906 -11.25 3.394531 -11.832031 2.78125 -12.625 C 2.175781 -13.414062 1.875 -14.476562 1.875 -15.8125 C 1.875 -16.988281 2.171875 -18.023438 2.765625 -18.921875 C 3.367188 -19.828125 4.207031 -20.523438 5.28125 -21.015625 C 6.363281 -21.515625 7.601562 -21.765625 9 -21.765625 C 11.007812 -21.765625 12.65625 -21.257812 13.9375 -20.25 C 15.226562 -19.25 15.957031 -17.914062 16.125 -16.25 L 13.046875 -16.25 C 12.941406 -17.070312 12.507812 -17.796875 11.75 -18.421875 C 10.988281 -19.046875 9.976562 -19.359375 8.71875 -19.359375 C 7.550781 -19.359375 6.597656 -19.054688 5.859375 -18.453125 C 5.117188 -17.847656 4.75 -17 4.75 -15.90625 C 4.75 -15.125 4.96875 -14.484375 5.40625 -13.984375 C 5.851562 -13.492188 6.398438 -13.117188 7.046875 -12.859375 C 7.691406 -12.609375 8.597656 -12.316406 9.765625 -11.984375 C 11.191406 -11.597656 12.332031 -11.210938 13.1875 -10.828125 C 14.050781 -10.453125 14.789062 -9.867188 15.40625 -9.078125 C 16.03125 -8.285156 16.34375 -7.210938 16.34375 -5.859375 C 16.34375 -4.804688 16.0625 -3.816406 15.5 -2.890625 C 14.945312 -1.972656 14.125 -1.222656 13.03125 -0.640625 C 11.945312 -0.0664062 10.664062 0.21875 9.1875 0.21875 Z M 9.1875 0.21875 "/></g></g></g><g fill="#ffffff" fill-opacity="1"><g transform="translate(296.263237, 149.810139)"><g><path d="M 1.328125 -10.765625 C 1.328125 -12.859375 1.796875 -14.738281 2.734375 -16.40625 C 3.679688 -18.082031 4.972656 -19.394531 6.609375 -20.34375 C 8.242188 -21.289062 10.054688 -21.765625 12.046875 -21.765625 C 14.390625 -21.765625 16.4375 -21.195312 18.1875 -20.0625 C 19.9375 -18.9375 21.210938 -17.335938 22.015625 -15.265625 L 18.65625 -15.265625 C 18.050781 -16.554688 17.1875 -17.550781 16.0625 -18.25 C 14.945312 -18.945312 13.609375 -19.296875 12.046875 -19.296875 C 10.546875 -19.296875 9.203125 -18.945312 8.015625 -18.25 C 6.828125 -17.550781 5.890625 -16.554688 5.203125 -15.265625 C 4.523438 -13.984375 4.1875 -12.484375 4.1875 -10.765625 C 4.1875 -9.054688 4.523438 -7.554688 5.203125 -6.265625 C 5.890625 -4.984375 6.828125 -3.992188 8.015625 -3.296875 C 9.203125 -2.597656 10.546875 -2.25 12.046875 -2.25 C 13.609375 -2.25 14.945312 -2.59375 16.0625 -3.28125 C 17.1875 -3.96875 18.050781 -4.960938 18.65625 -6.265625 L 22.015625 -6.265625 C 21.210938 -4.203125 19.9375 -2.609375 18.1875 -1.484375 C 16.4375 -0.367188 14.390625 0.1875 12.046875 0.1875 C 10.054688 0.1875 8.242188 -0.28125 6.609375 -1.21875 C 4.972656 -2.15625 3.679688 -3.453125 2.734375 -5.109375 C 1.796875 -6.773438 1.328125 -8.660156 1.328125 -10.765625 Z M 1.328125 -10.765625 "/></g></g></g><g fill="#ffffff" fill-opacity="1"><g transform="translate(320.051504, 149.810139)"><g><path d="M 13.6875 0 L 8.5625 -8.78125 L 5.171875 -8.78125 L 5.171875 0 L 2.375 0 L 2.375 -21.484375 L 9.3125 -21.484375 C 10.9375 -21.484375 12.304688 -21.207031 13.421875 -20.65625 C 14.546875 -20.101562 15.382812 -19.351562 15.9375 -18.40625 C 16.488281 -17.457031 16.765625 -16.378906 16.765625 -15.171875 C 16.765625 -13.691406 16.335938 -12.382812 15.484375 -11.25 C 14.640625 -10.125 13.363281 -9.375 11.65625 -9 L 17.046875 0 Z M 5.171875 -11.03125 L 9.3125 -11.03125 C 10.832031 -11.03125 11.972656 -11.40625 12.734375 -12.15625 C 13.492188 -12.90625 13.875 -13.910156 13.875 -15.171875 C 13.875 -16.441406 13.5 -17.425781 12.75 -18.125 C 12 -18.820312 10.851562 -19.171875 9.3125 -19.171875 L 5.171875 -19.171875 Z M 5.171875 -11.03125 "/></g></g></g><g fill="#ffffff" fill-opacity="1"><g transform="translate(338.786307, 149.810139)"><g><path d="M 5.171875 -21.484375 L 5.171875 0 L 2.375 0 L 2.375 -21.484375 Z M 5.171875 -21.484375 "/></g></g></g><g fill="#ffffff" fill-opacity="1"><g transform="translate(346.36651, 149.810139)"><g><path d="M 16.734375 -15.203125 C 16.734375 -13.410156 16.125 -11.921875 14.90625 -10.734375 C 13.6875 -9.554688 11.820312 -8.96875 9.3125 -8.96875 L 5.171875 -8.96875 L 5.171875 0 L 2.375 0 L 2.375 -21.484375 L 9.3125 -21.484375 C 11.738281 -21.484375 13.582031 -20.894531 14.84375 -19.71875 C 16.101562 -18.550781 16.734375 -17.046875 16.734375 -15.203125 Z M 9.3125 -11.28125 C 10.875 -11.28125 12.023438 -11.617188 12.765625 -12.296875 C 13.503906 -12.972656 13.875 -13.941406 13.875 -15.203125 C 13.875 -17.847656 12.351562 -19.171875 9.3125 -19.171875 L 5.171875 -19.171875 L 5.171875 -11.28125 Z M 9.3125 -11.28125 "/></g></g></g><g fill="#ffffff" fill-opacity="1"><g transform="translate(364.207702, 149.810139)"><g><path d="M 15.59375 -21.484375 L 15.59375 -19.203125 L 9.734375 -19.203125 L 9.734375 0 L 6.9375 0 L 6.9375 -19.203125 L 1.046875 -19.203125 L 1.046875 -21.484375 Z M 15.59375 -21.484375 "/></g></g></g><g fill="#ffffff" fill-opacity="1"><g transform="translate(86.889388, 305.880552)"><g><path d="M 11.828125 -3.75 L 4.46875 -3.75 L 3.125 0 L 0.796875 0 L 6.890625 -16.765625 L 9.4375 -16.765625 L 15.5 0 L 13.1875 0 Z M 11.203125 -5.53125 L 8.15625 -14.046875 L 5.109375 -5.53125 Z M 11.203125 -5.53125 "/></g></g></g><g fill="#ffffff" fill-opacity="1"><g transform="translate(103.190061, 305.880552)"><g><path d="M 7.109375 -16.859375 C 8.953125 -16.859375 10.546875 -16.515625 11.890625 -15.828125 C 13.234375 -15.140625 14.265625 -14.160156 14.984375 -12.890625 C 15.703125 -11.617188 16.0625 -10.117188 16.0625 -8.390625 C 16.0625 -6.671875 15.703125 -5.175781 14.984375 -3.90625 C 14.265625 -2.632812 13.234375 -1.664062 11.890625 -1 C 10.546875 -0.332031 8.953125 0 7.109375 0 L 1.859375 0 L 1.859375 -16.859375 Z M 7.109375 -1.8125 C 9.285156 -1.8125 10.945312 -2.382812 12.09375 -3.53125 C 13.238281 -4.6875 13.8125 -6.304688 13.8125 -8.390625 C 13.8125 -10.484375 13.234375 -12.117188 12.078125 -13.296875 C 10.929688 -14.472656 9.273438 -15.0625 7.109375 -15.0625 L 4.0625 -15.0625 L 4.0625 -1.8125 Z M 7.109375 -1.8125 "/></g></g></g><g fill="#ffffff" fill-opacity="1"><g transform="translate(120.288845, 305.880552)"><g><path d="M 9.5 0.171875 C 7.9375 0.171875 6.507812 -0.191406 5.21875 -0.921875 C 3.9375 -1.660156 2.921875 -2.6875 2.171875 -4 C 1.421875 -5.3125 1.046875 -6.789062 1.046875 -8.4375 C 1.046875 -10.082031 1.421875 -11.5625 2.171875 -12.875 C 2.921875 -14.1875 3.9375 -15.207031 5.21875 -15.9375 C 6.507812 -16.675781 7.9375 -17.046875 9.5 -17.046875 C 11.082031 -17.046875 12.519531 -16.675781 13.8125 -15.9375 C 15.101562 -15.207031 16.117188 -14.191406 16.859375 -12.890625 C 17.597656 -11.585938 17.96875 -10.101562 17.96875 -8.4375 C 17.96875 -6.78125 17.597656 -5.296875 16.859375 -3.984375 C 16.117188 -2.679688 15.101562 -1.660156 13.8125 -0.921875 C 12.519531 -0.191406 11.082031 0.171875 9.5 0.171875 Z M 9.5 -1.734375 C 10.675781 -1.734375 11.734375 -2.007812 12.671875 -2.5625 C 13.617188 -3.113281 14.363281 -3.894531 14.90625 -4.90625 C 15.445312 -5.925781 15.71875 -7.101562 15.71875 -8.4375 C 15.71875 -9.789062 15.445312 -10.972656 14.90625 -11.984375 C 14.363281 -12.992188 13.625 -13.769531 12.6875 -14.3125 C 11.757812 -14.863281 10.695312 -15.140625 9.5 -15.140625 C 8.3125 -15.140625 7.25 -14.863281 6.3125 -14.3125 C 5.375 -13.769531 4.632812 -12.992188 4.09375 -11.984375 C 3.5625 -10.972656 3.296875 -9.789062 3.296875 -8.4375 C 3.296875 -7.101562 3.5625 -5.925781 4.09375 -4.90625 C 4.632812 -3.894531 5.375 -3.113281 6.3125 -2.5625 C 7.257812 -2.007812 8.320312 -1.734375 9.5 -1.734375 Z M 9.5 -1.734375 "/></g></g></g><g fill="#ffffff" fill-opacity="1"><g transform="translate(139.298236, 305.880552)"><g><path d="M 10.296875 -8.6875 C 10.910156 -8.582031 11.472656 -8.328125 11.984375 -7.921875 C 12.492188 -7.523438 12.894531 -7.023438 13.1875 -6.421875 C 13.488281 -5.828125 13.640625 -5.191406 13.640625 -4.515625 C 13.640625 -3.660156 13.421875 -2.890625 12.984375 -2.203125 C 12.546875 -1.523438 11.910156 -0.988281 11.078125 -0.59375 C 10.253906 -0.195312 9.28125 0 8.15625 0 L 1.859375 0 L 1.859375 -16.859375 L 7.90625 -16.859375 C 9.050781 -16.859375 10.023438 -16.664062 10.828125 -16.28125 C 11.640625 -15.90625 12.242188 -15.394531 12.640625 -14.75 C 13.046875 -14.101562 13.25 -13.378906 13.25 -12.578125 C 13.25 -11.578125 12.976562 -10.75 12.4375 -10.09375 C 11.90625 -9.445312 11.191406 -8.976562 10.296875 -8.6875 Z M 4.0625 -9.578125 L 7.765625 -9.578125 C 8.796875 -9.578125 9.59375 -9.816406 10.15625 -10.296875 C 10.71875 -10.785156 11 -11.457031 11 -12.3125 C 11 -13.164062 10.71875 -13.832031 10.15625 -14.3125 C 9.59375 -14.800781 8.78125 -15.046875 7.71875 -15.046875 L 4.0625 -15.046875 Z M 7.953125 -1.8125 C 9.054688 -1.8125 9.910156 -2.066406 10.515625 -2.578125 C 11.128906 -3.097656 11.4375 -3.816406 11.4375 -4.734375 C 11.4375 -5.671875 11.113281 -6.410156 10.46875 -6.953125 C 9.820312 -7.492188 8.960938 -7.765625 7.890625 -7.765625 L 4.0625 -7.765625 L 4.0625 -1.8125 Z M 7.953125 -1.8125 "/></g></g></g><g fill="#ffffff" fill-opacity="1"><g transform="translate(154.123629, 305.880552)"><g><path d="M 4.0625 -15.0625 L 4.0625 -9.4375 L 10.203125 -9.4375 L 10.203125 -7.625 L 4.0625 -7.625 L 4.0625 -1.8125 L 10.9375 -1.8125 L 10.9375 0 L 1.859375 0 L 1.859375 -16.890625 L 10.9375 -16.890625 L 10.9375 -15.0625 Z M 4.0625 -15.0625 "/></g></g></g><g fill="#ffffff" fill-opacity="1"><g transform="translate(52.585409, 329.8664)"><g><path d="M 4.0625 -16.859375 L 4.0625 0 L 1.859375 0 L 1.859375 -16.859375 Z M 4.0625 -16.859375 "/></g></g></g><g fill="#ffffff" fill-opacity="1"><g transform="translate(58.534909, 329.8664)"><g><path d="M 4.0625 -1.796875 L 9.96875 -1.796875 L 9.96875 0 L 1.859375 0 L 1.859375 -16.859375 L 4.0625 -16.859375 Z M 4.0625 -1.796875 "/></g></g></g><g fill="#ffffff" fill-opacity="1"><g transform="translate(68.98282, 329.8664)"><g><path d="M 4.0625 -1.796875 L 9.96875 -1.796875 L 9.96875 0 L 1.859375 0 L 1.859375 -16.859375 L 4.0625 -16.859375 Z M 4.0625 -1.796875 "/></g></g></g><g fill="#ffffff" fill-opacity="1"><g transform="translate(79.43073, 329.8664)"><g><path d="M 4.015625 -16.859375 L 4.015625 -6.1875 C 4.015625 -4.6875 4.378906 -3.570312 5.109375 -2.84375 C 5.847656 -2.125 6.867188 -1.765625 8.171875 -1.765625 C 9.460938 -1.765625 10.472656 -2.125 11.203125 -2.84375 C 11.941406 -3.570312 12.3125 -4.6875 12.3125 -6.1875 L 12.3125 -16.859375 L 14.515625 -16.859375 L 14.515625 -6.21875 C 14.515625 -4.8125 14.226562 -3.628906 13.65625 -2.671875 C 13.09375 -1.710938 12.332031 -1 11.375 -0.53125 C 10.414062 -0.0625 9.34375 0.171875 8.15625 0.171875 C 6.957031 0.171875 5.878906 -0.0625 4.921875 -0.53125 C 3.960938 -1 3.203125 -1.710938 2.640625 -2.671875 C 2.085938 -3.628906 1.8125 -4.8125 1.8125 -6.21875 L 1.8125 -16.859375 Z M 4.015625 -16.859375 "/></g></g></g><g fill="#ffffff" fill-opacity="1"><g transform="translate(95.755593, 329.8664)"><g><path d="M 7.203125 0.171875 C 6.085938 0.171875 5.09375 -0.0234375 4.21875 -0.421875 C 3.34375 -0.816406 2.65625 -1.363281 2.15625 -2.0625 C 1.65625 -2.769531 1.394531 -3.582031 1.375 -4.5 L 3.71875 -4.5 C 3.800781 -3.707031 4.128906 -3.039062 4.703125 -2.5 C 5.273438 -1.957031 6.109375 -1.6875 7.203125 -1.6875 C 8.253906 -1.6875 9.082031 -1.945312 9.6875 -2.46875 C 10.289062 -3 10.59375 -3.675781 10.59375 -4.5 C 10.59375 -5.144531 10.414062 -5.664062 10.0625 -6.0625 C 9.707031 -6.46875 9.265625 -6.773438 8.734375 -6.984375 C 8.203125 -7.191406 7.484375 -7.421875 6.578125 -7.671875 C 5.460938 -7.960938 4.570312 -8.25 3.90625 -8.53125 C 3.238281 -8.820312 2.664062 -9.28125 2.1875 -9.90625 C 1.707031 -10.53125 1.46875 -11.363281 1.46875 -12.40625 C 1.46875 -13.320312 1.703125 -14.132812 2.171875 -14.84375 C 2.640625 -15.5625 3.296875 -16.113281 4.140625 -16.5 C 4.992188 -16.882812 5.96875 -17.078125 7.0625 -17.078125 C 8.644531 -17.078125 9.9375 -16.679688 10.9375 -15.890625 C 11.945312 -15.097656 12.519531 -14.050781 12.65625 -12.75 L 10.234375 -12.75 C 10.148438 -13.394531 9.8125 -13.960938 9.21875 -14.453125 C 8.625 -14.941406 7.832031 -15.1875 6.84375 -15.1875 C 5.925781 -15.1875 5.175781 -14.945312 4.59375 -14.46875 C 4.007812 -14 3.71875 -13.335938 3.71875 -12.484375 C 3.71875 -11.867188 3.890625 -11.367188 4.234375 -10.984375 C 4.585938 -10.597656 5.015625 -10.300781 5.515625 -10.09375 C 6.023438 -9.894531 6.742188 -9.664062 7.671875 -9.40625 C 8.785156 -9.101562 9.679688 -8.800781 10.359375 -8.5 C 11.035156 -8.195312 11.613281 -7.734375 12.09375 -7.109375 C 12.570312 -6.492188 12.8125 -5.65625 12.8125 -4.59375 C 12.8125 -3.769531 12.59375 -2.992188 12.15625 -2.265625 C 11.726562 -1.546875 11.085938 -0.957031 10.234375 -0.5 C 9.378906 -0.0507812 8.367188 0.171875 7.203125 0.171875 Z M 7.203125 0.171875 "/></g></g></g><g fill="#ffffff" fill-opacity="1"><g transform="translate(109.952173, 329.8664)"><g><path d="M 12.234375 -16.859375 L 12.234375 -15.0625 L 7.640625 -15.0625 L 7.640625 0 L 5.4375 0 L 5.4375 -15.0625 L 0.828125 -15.0625 L 0.828125 -16.859375 Z M 12.234375 -16.859375 "/></g></g></g><g fill="#ffffff" fill-opacity="1"><g transform="translate(123.036243, 329.8664)"><g><path d="M 10.734375 0 L 6.71875 -6.890625 L 4.0625 -6.890625 L 4.0625 0 L 1.859375 0 L 1.859375 -16.859375 L 7.296875 -16.859375 C 8.578125 -16.859375 9.65625 -16.640625 10.53125 -16.203125 C 11.414062 -15.765625 12.070312 -15.175781 12.5 -14.4375 C 12.9375 -13.695312 13.15625 -12.851562 13.15625 -11.90625 C 13.15625 -10.738281 12.820312 -9.710938 12.15625 -8.828125 C 11.488281 -7.941406 10.484375 -7.351562 9.140625 -7.0625 L 13.375 0 Z M 4.0625 -8.65625 L 7.296875 -8.65625 C 8.492188 -8.65625 9.390625 -8.945312 9.984375 -9.53125 C 10.585938 -10.125 10.890625 -10.914062 10.890625 -11.90625 C 10.890625 -12.90625 10.59375 -13.675781 10 -14.21875 C 9.414062 -14.769531 8.515625 -15.046875 7.296875 -15.046875 L 4.0625 -15.046875 Z M 4.0625 -8.65625 "/></g></g></g><g fill="#ffffff" fill-opacity="1"><g transform="translate(137.740709, 329.8664)"><g><path d="M 11.828125 -3.75 L 4.46875 -3.75 L 3.125 0 L 0.796875 0 L 6.890625 -16.765625 L 9.4375 -16.765625 L 15.5 0 L 13.1875 0 Z M 11.203125 -5.53125 L 8.15625 -14.046875 L 5.109375 -5.53125 Z M 11.203125 -5.53125 "/></g></g></g><g fill="#ffffff" fill-opacity="1"><g transform="translate(154.041383, 329.8664)"><g><path d="M 12.234375 -16.859375 L 12.234375 -15.0625 L 7.640625 -15.0625 L 7.640625 0 L 5.4375 0 L 5.4375 -15.0625 L 0.828125 -15.0625 L 0.828125 -16.859375 Z M 12.234375 -16.859375 "/></g></g></g><g fill="#ffffff" fill-opacity="1"><g transform="translate(167.125452, 329.8664)"><g><path d="M 9.5 0.171875 C 7.9375 0.171875 6.507812 -0.191406 5.21875 -0.921875 C 3.9375 -1.660156 2.921875 -2.6875 2.171875 -4 C 1.421875 -5.3125 1.046875 -6.789062 1.046875 -8.4375 C 1.046875 -10.082031 1.421875 -11.5625 2.171875 -12.875 C 2.921875 -14.1875 3.9375 -15.207031 5.21875 -15.9375 C 6.507812 -16.675781 7.9375 -17.046875 9.5 -17.046875 C 11.082031 -17.046875 12.519531 -16.675781 13.8125 -15.9375 C 15.101562 -15.207031 16.117188 -14.191406 16.859375 -12.890625 C 17.597656 -11.585938 17.96875 -10.101562 17.96875 -8.4375 C 17.96875 -6.78125 17.597656 -5.296875 16.859375 -3.984375 C 16.117188 -2.679688 15.101562 -1.660156 13.8125 -0.921875 C 12.519531 -0.191406 11.082031 0.171875 9.5 0.171875 Z M 9.5 -1.734375 C 10.675781 -1.734375 11.734375 -2.007812 12.671875 -2.5625 C 13.617188 -3.113281 14.363281 -3.894531 14.90625 -4.90625 C 15.445312 -5.925781 15.71875 -7.101562 15.71875 -8.4375 C 15.71875 -9.789062 15.445312 -10.972656 14.90625 -11.984375 C 14.363281 -12.992188 13.625 -13.769531 12.6875 -14.3125 C 11.757812 -14.863281 10.695312 -15.140625 9.5 -15.140625 C 8.3125 -15.140625 7.25 -14.863281 6.3125 -14.3125 C 5.375 -13.769531 4.632812 -12.992188 4.09375 -11.984375 C 3.5625 -10.972656 3.296875 -9.789062 3.296875 -8.4375 C 3.296875 -7.101562 3.5625 -5.925781 4.09375 -4.90625 C 4.632812 -3.894531 5.375 -3.113281 6.3125 -2.5625 C 7.257812 -2.007812 8.320312 -1.734375 9.5 -1.734375 Z M 9.5 -1.734375 "/></g></g></g><g fill="#ffffff" fill-opacity="1"><g transform="translate(186.134843, 329.8664)"><g><path d="M 10.734375 0 L 6.71875 -6.890625 L 4.0625 -6.890625 L 4.0625 0 L 1.859375 0 L 1.859375 -16.859375 L 7.296875 -16.859375 C 8.578125 -16.859375 9.65625 -16.640625 10.53125 -16.203125 C 11.414062 -15.765625 12.070312 -15.175781 12.5 -14.4375 C 12.9375 -13.695312 13.15625 -12.851562 13.15625 -11.90625 C 13.15625 -10.738281 12.820312 -9.710938 12.15625 -8.828125 C 11.488281 -7.941406 10.484375 -7.351562 9.140625 -7.0625 L 13.375 0 Z M 4.0625 -8.65625 L 7.296875 -8.65625 C 8.492188 -8.65625 9.390625 -8.945312 9.984375 -9.53125 C 10.585938 -10.125 10.890625 -10.914062 10.890625 -11.90625 C 10.890625 -12.90625 10.59375 -13.675781 10 -14.21875 C 9.414062 -14.769531 8.515625 -15.046875 7.296875 -15.046875 L 4.0625 -15.046875 Z M 4.0625 -8.65625 "/></g></g></g><g fill="#ffffff" fill-opacity="1"><g transform="translate(82.638552, 160.875124)"><g><path d="M 1.828125 -14.796875 C 1.828125 -17.679688 2.472656 -20.273438 3.765625 -22.578125 C 5.066406 -24.878906 6.84375 -26.679688 9.09375 -27.984375 C 11.34375 -29.285156 13.835938 -29.9375 16.578125 -29.9375 C 19.804688 -29.9375 22.617188 -29.160156 25.015625 -27.609375 C 27.421875 -26.054688 29.175781 -23.847656 30.28125 -20.984375 L 25.65625 -20.984375 C 24.832031 -22.765625 23.648438 -24.132812 22.109375 -25.09375 C 20.566406 -26.0625 18.722656 -26.546875 16.578125 -26.546875 C 14.515625 -26.546875 12.660156 -26.0625 11.015625 -25.09375 C 9.378906 -24.132812 8.09375 -22.769531 7.15625 -21 C 6.226562 -19.238281 5.765625 -17.171875 5.765625 -14.796875 C 5.765625 -12.453125 6.226562 -10.394531 7.15625 -8.625 C 8.09375 -6.863281 9.378906 -5.5 11.015625 -4.53125 C 12.660156 -3.570312 14.515625 -3.09375 16.578125 -3.09375 C 18.722656 -3.09375 20.566406 -3.566406 22.109375 -4.515625 C 23.648438 -5.460938 24.832031 -6.828125 25.65625 -8.609375 L 30.28125 -8.609375 C 29.175781 -5.785156 27.421875 -3.601562 25.015625 -2.0625 C 22.617188 -0.519531 19.804688 0.25 16.578125 0.25 C 13.835938 0.25 11.34375 -0.390625 9.09375 -1.671875 C 6.84375 -2.960938 5.066406 -4.75 3.765625 -7.03125 C 2.472656 -9.320312 1.828125 -11.910156 1.828125 -14.796875 Z M 1.828125 -14.796875 "/></g></g></g><g fill="#ffffff" fill-opacity="1"><g transform="translate(115.365831, 160.875124)"><g><path d="M 12.640625 0.296875 C 10.691406 0.296875 8.945312 -0.046875 7.40625 -0.734375 C 5.863281 -1.429688 4.648438 -2.394531 3.765625 -3.625 C 2.890625 -4.851562 2.441406 -6.273438 2.421875 -7.890625 L 6.53125 -7.890625 C 6.675781 -6.503906 7.25 -5.335938 8.25 -4.390625 C 9.25 -3.441406 10.710938 -2.96875 12.640625 -2.96875 C 14.472656 -2.96875 15.921875 -3.425781 16.984375 -4.34375 C 18.046875 -5.257812 18.578125 -6.441406 18.578125 -7.890625 C 18.578125 -9.015625 18.265625 -9.929688 17.640625 -10.640625 C 17.015625 -11.347656 16.234375 -11.882812 15.296875 -12.25 C 14.367188 -12.625 13.113281 -13.019531 11.53125 -13.4375 C 9.582031 -13.945312 8.019531 -14.457031 6.84375 -14.96875 C 5.675781 -15.476562 4.675781 -16.273438 3.84375 -17.359375 C 3.007812 -18.453125 2.59375 -19.914062 2.59375 -21.75 C 2.59375 -23.363281 3 -24.789062 3.8125 -26.03125 C 4.632812 -27.28125 5.785156 -28.242188 7.265625 -28.921875 C 8.753906 -29.597656 10.457031 -29.9375 12.375 -29.9375 C 15.144531 -29.9375 17.414062 -29.242188 19.1875 -27.859375 C 20.957031 -26.472656 21.953125 -24.632812 22.171875 -22.34375 L 17.9375 -22.34375 C 17.789062 -23.476562 17.195312 -24.472656 16.15625 -25.328125 C 15.113281 -26.191406 13.726562 -26.625 12 -26.625 C 10.382812 -26.625 9.066406 -26.207031 8.046875 -25.375 C 7.035156 -24.539062 6.53125 -23.375 6.53125 -21.875 C 6.53125 -20.800781 6.832031 -19.925781 7.4375 -19.25 C 8.050781 -18.570312 8.800781 -18.054688 9.6875 -17.703125 C 10.582031 -17.347656 11.832031 -16.945312 13.4375 -16.5 C 15.394531 -15.957031 16.96875 -15.425781 18.15625 -14.90625 C 19.34375 -14.382812 20.359375 -13.578125 21.203125 -12.484375 C 22.046875 -11.398438 22.46875 -9.925781 22.46875 -8.0625 C 22.46875 -6.613281 22.085938 -5.253906 21.328125 -3.984375 C 20.566406 -2.710938 19.4375 -1.679688 17.9375 -0.890625 C 16.4375 -0.0976562 14.671875 0.296875 12.640625 0.296875 Z M 12.640625 0.296875 "/></g></g></g><g fill="#ffffff" fill-opacity="1"><g transform="translate(140.250436, 160.875124)"><g><path d="M 12.640625 0.296875 C 10.691406 0.296875 8.945312 -0.046875 7.40625 -0.734375 C 5.863281 -1.429688 4.648438 -2.394531 3.765625 -3.625 C 2.890625 -4.851562 2.441406 -6.273438 2.421875 -7.890625 L 6.53125 -7.890625 C 6.675781 -6.503906 7.25 -5.335938 8.25 -4.390625 C 9.25 -3.441406 10.710938 -2.96875 12.640625 -2.96875 C 14.472656 -2.96875 15.921875 -3.425781 16.984375 -4.34375 C 18.046875 -5.257812 18.578125 -6.441406 18.578125 -7.890625 C 18.578125 -9.015625 18.265625 -9.929688 17.640625 -10.640625 C 17.015625 -11.347656 16.234375 -11.882812 15.296875 -12.25 C 14.367188 -12.625 13.113281 -13.019531 11.53125 -13.4375 C 9.582031 -13.945312 8.019531 -14.457031 6.84375 -14.96875 C 5.675781 -15.476562 4.675781 -16.273438 3.84375 -17.359375 C 3.007812 -18.453125 2.59375 -19.914062 2.59375 -21.75 C 2.59375 -23.363281 3 -24.789062 3.8125 -26.03125 C 4.632812 -27.28125 5.785156 -28.242188 7.265625 -28.921875 C 8.753906 -29.597656 10.457031 -29.9375 12.375 -29.9375 C 15.144531 -29.9375 17.414062 -29.242188 19.1875 -27.859375 C 20.957031 -26.472656 21.953125 -24.632812 22.171875 -22.34375 L 17.9375 -22.34375 C 17.789062 -23.476562 17.195312 -24.472656 16.15625 -25.328125 C 15.113281 -26.191406 13.726562 -26.625 12 -26.625 C 10.382812 -26.625 9.066406 -26.207031 8.046875 -25.375 C 7.035156 -24.539062 6.53125 -23.375 6.53125 -21.875 C 6.53125 -20.800781 6.832031 -19.925781 7.4375 -19.25 C 8.050781 -18.570312 8.800781 -18.054688 9.6875 -17.703125 C 10.582031 -17.347656 11.832031 -16.945312 13.4375 -16.5 C 15.394531 -15.957031 16.96875 -15.425781 18.15625 -14.90625 C 19.34375 -14.382812 20.359375 -13.578125 21.203125 -12.484375 C 22.046875 -11.398438 22.46875 -9.925781 22.46875 -8.0625 C 22.46875 -6.613281 22.085938 -5.253906 21.328125 -3.984375 C 20.566406 -2.710938 19.4375 -1.679688 17.9375 -0.890625 C 16.4375 -0.0976562 14.671875 0.296875 12.640625 0.296875 Z M 12.640625 0.296875 "/></g></g></g><g fill="#ffffff" fill-opacity="1"><g transform="translate(115.580854, 237.27233)"><g><path d="M 20.671875 -18.765625 C 20.671875 -16.554688 19.914062 -14.722656 18.40625 -13.265625 C 16.894531 -11.804688 14.59375 -11.078125 11.5 -11.078125 L 6.390625 -11.078125 L 6.390625 0 L 2.9375 0 L 2.9375 -26.53125 L 11.5 -26.53125 C 14.488281 -26.53125 16.765625 -25.804688 18.328125 -24.359375 C 19.890625 -22.910156 20.671875 -21.046875 20.671875 -18.765625 Z M 11.5 -13.9375 C 13.425781 -13.9375 14.84375 -14.351562 15.75 -15.1875 C 16.664062 -16.019531 17.125 -17.210938 17.125 -18.765625 C 17.125 -22.035156 15.25 -23.671875 11.5 -23.671875 L 6.390625 -23.671875 L 6.390625 -13.9375 Z M 11.5 -13.9375 "/></g></g></g><g fill="#ffffff" fill-opacity="1"><g transform="translate(137.61278, 237.27233)"><g><path d="M 16.90625 0 L 10.578125 -10.84375 L 6.390625 -10.84375 L 6.390625 0 L 2.9375 0 L 2.9375 -26.53125 L 11.5 -26.53125 C 13.5 -26.53125 15.191406 -26.1875 16.578125 -25.5 C 17.960938 -24.8125 18.992188 -23.882812 19.671875 -22.71875 C 20.359375 -21.550781 20.703125 -20.222656 20.703125 -18.734375 C 20.703125 -16.898438 20.175781 -15.285156 19.125 -13.890625 C 18.070312 -12.492188 16.492188 -11.566406 14.390625 -11.109375 L 21.046875 0 Z M 6.390625 -13.625 L 11.5 -13.625 C 13.375 -13.625 14.78125 -14.085938 15.71875 -15.015625 C 16.65625 -15.941406 17.125 -17.179688 17.125 -18.734375 C 17.125 -20.304688 16.660156 -21.519531 15.734375 -22.375 C 14.804688 -23.238281 13.394531 -23.671875 11.5 -23.671875 L 6.390625 -23.671875 Z M 6.390625 -13.625 "/></g></g></g><g fill="#ffffff" fill-opacity="1"><g transform="translate(160.748205, 237.27233)"><g><path d="M 6.390625 -23.71875 L 6.390625 -14.84375 L 16.0625 -14.84375 L 16.0625 -11.984375 L 6.390625 -11.984375 L 6.390625 -2.859375 L 17.203125 -2.859375 L 17.203125 0 L 2.9375 0 L 2.9375 -26.5625 L 17.203125 -26.5625 L 17.203125 -23.71875 Z M 6.390625 -23.71875 "/></g></g></g><g fill="#ffffff" fill-opacity="1"><g transform="translate(180.268719, 237.27233)"><g><path d="M 29.84375 -26.34375 L 29.84375 0 L 26.375 0 L 26.375 -19.640625 L 17.625 0 L 15.1875 0 L 6.390625 -19.671875 L 6.390625 0 L 2.9375 0 L 2.9375 -26.34375 L 6.65625 -26.34375 L 16.40625 -4.5625 L 26.15625 -26.34375 Z M 29.84375 -26.34375 "/></g></g></g><g fill="#ffffff" fill-opacity="1"><g transform="translate(213.031219, 237.27233)"><g><path d="M 6.390625 -26.53125 L 6.390625 0 L 2.9375 0 L 2.9375 -26.53125 Z M 6.390625 -26.53125 "/></g></g></g><g fill="#ffffff" fill-opacity="1"><g transform="translate(222.39193, 237.27233)"><g><path d="M 6.390625 -23.71875 L 6.390625 -14.84375 L 16.0625 -14.84375 L 16.0625 -11.984375 L 6.390625 -11.984375 L 6.390625 -2.859375 L 17.203125 -2.859375 L 17.203125 0 L 2.9375 0 L 2.9375 -26.5625 L 17.203125 -26.5625 L 17.203125 -23.71875 Z M 6.390625 -23.71875 "/></g></g></g><g fill="#ffffff" fill-opacity="1"><g transform="translate(241.912444, 237.27233)"><g><path d="M 16.90625 0 L 10.578125 -10.84375 L 6.390625 -10.84375 L 6.390625 0 L 2.9375 0 L 2.9375 -26.53125 L 11.5 -26.53125 C 13.5 -26.53125 15.191406 -26.1875 16.578125 -25.5 C 17.960938 -24.8125 18.992188 -23.882812 19.671875 -22.71875 C 20.359375 -21.550781 20.703125 -20.222656 20.703125 -18.734375 C 20.703125 -16.898438 20.175781 -15.285156 19.125 -13.890625 C 18.070312 -12.492188 16.492188 -11.566406 14.390625 -11.109375 L 21.046875 0 Z M 6.390625 -13.625 L 11.5 -13.625 C 13.375 -13.625 14.78125 -14.085938 15.71875 -15.015625 C 16.65625 -15.941406 17.125 -17.179688 17.125 -18.734375 C 17.125 -20.304688 16.660156 -21.519531 15.734375 -22.375 C 14.804688 -23.238281 13.394531 -23.671875 11.5 -23.671875 L 6.390625 -23.671875 Z M 6.390625 -13.625 "/></g></g></g><g fill="#ffffff" fill-opacity="1"><g transform="translate(265.047868, 237.27233)"><g><path d="M 6.390625 -23.71875 L 6.390625 -14.84375 L 16.0625 -14.84375 L 16.0625 -11.984375 L 6.390625 -11.984375 L 6.390625 -2.859375 L 17.203125 -2.859375 L 17.203125 0 L 2.9375 0 L 2.9375 -26.5625 L 17.203125 -26.5625 L 17.203125 -23.71875 Z M 6.390625 -23.71875 "/></g></g></g><g fill="#ffffff" fill-opacity="1"><g transform="translate(284.568383, 237.27233)"><g/></g></g><g fill="#ffffff" fill-opacity="1"><g transform="translate(294.728187, 237.27233)"><g><path d="M 20.671875 -18.765625 C 20.671875 -16.554688 19.914062 -14.722656 18.40625 -13.265625 C 16.894531 -11.804688 14.59375 -11.078125 11.5 -11.078125 L 6.390625 -11.078125 L 6.390625 0 L 2.9375 0 L 2.9375 -26.53125 L 11.5 -26.53125 C 14.488281 -26.53125 16.765625 -25.804688 18.328125 -24.359375 C 19.890625 -22.910156 20.671875 -21.046875 20.671875 -18.765625 Z M 11.5 -13.9375 C 13.425781 -13.9375 14.84375 -14.351562 15.75 -15.1875 C 16.664062 -16.019531 17.125 -17.210938 17.125 -18.765625 C 17.125 -22.035156 15.25 -23.671875 11.5 -23.671875 L 6.390625 -23.671875 L 6.390625 -13.9375 Z M 11.5 -13.9375 "/></g></g></g><g fill="#ffffff" fill-opacity="1"><g transform="translate(316.760113, 237.27233)"><g><path d="M 16.90625 0 L 10.578125 -10.84375 L 6.390625 -10.84375 L 6.390625 0 L 2.9375 0 L 2.9375 -26.53125 L 11.5 -26.53125 C 13.5 -26.53125 15.191406 -26.1875 16.578125 -25.5 C 17.960938 -24.8125 18.992188 -23.882812 19.671875 -22.71875 C 20.359375 -21.550781 20.703125 -20.222656 20.703125 -18.734375 C 20.703125 -16.898438 20.175781 -15.285156 19.125 -13.890625 C 18.070312 -12.492188 16.492188 -11.566406 14.390625 -11.109375 L 21.046875 0 Z M 6.390625 -13.625 L 11.5 -13.625 C 13.375 -13.625 14.78125 -14.085938 15.71875 -15.015625 C 16.65625 -15.941406 17.125 -17.179688 17.125 -18.734375 C 17.125 -20.304688 16.660156 -21.519531 15.734375 -22.375 C 14.804688 -23.238281 13.394531 -23.671875 11.5 -23.671875 L 6.390625 -23.671875 Z M 6.390625 -13.625 "/></g></g></g><g fill="#ffffff" fill-opacity="1"><g transform="translate(339.895526, 237.27233)"><g><path d="M 14.953125 0.265625 C 12.492188 0.265625 10.25 -0.3125 8.21875 -1.46875 C 6.1875 -2.625 4.582031 -4.234375 3.40625 -6.296875 C 2.226562 -8.367188 1.640625 -10.695312 1.640625 -13.28125 C 1.640625 -15.875 2.226562 -18.203125 3.40625 -20.265625 C 4.582031 -22.335938 6.1875 -23.945312 8.21875 -25.09375 C 10.25 -26.25 12.492188 -26.828125 14.953125 -26.828125 C 17.441406 -26.828125 19.703125 -26.25 21.734375 -25.09375 C 23.765625 -23.945312 25.363281 -22.34375 26.53125 -20.28125 C 27.695312 -18.226562 28.28125 -15.894531 28.28125 -13.28125 C 28.28125 -10.664062 27.695312 -8.332031 26.53125 -6.28125 C 25.363281 -4.226562 23.765625 -2.625 21.734375 -1.46875 C 19.703125 -0.3125 17.441406 0.265625 14.953125 0.265625 Z M 14.953125 -2.734375 C 16.804688 -2.734375 18.472656 -3.164062 19.953125 -4.03125 C 21.441406 -4.894531 22.609375 -6.125 23.453125 -7.71875 C 24.304688 -9.320312 24.734375 -11.175781 24.734375 -13.28125 C 24.734375 -15.414062 24.304688 -17.273438 23.453125 -18.859375 C 22.609375 -20.441406 21.453125 -21.664062 19.984375 -22.53125 C 18.515625 -23.394531 16.835938 -23.828125 14.953125 -23.828125 C 13.078125 -23.828125 11.40625 -23.394531 9.9375 -22.53125 C 8.46875 -21.664062 7.304688 -20.441406 6.453125 -18.859375 C 5.597656 -17.273438 5.171875 -15.414062 5.171875 -13.28125 C 5.171875 -11.175781 5.597656 -9.320312 6.453125 -7.71875 C 7.304688 -6.125 8.472656 -4.894531 9.953125 -4.03125 C 11.441406 -3.164062 13.109375 -2.734375 14.953125 -2.734375 Z M 14.953125 -2.734375 "/></g></g></g><g fill="#ffffff" fill-opacity="1"><g transform="translate(87.693344, 200.710704)"><g><path d="M 16.734375 -15.203125 C 16.734375 -13.410156 16.125 -11.921875 14.90625 -10.734375 C 13.6875 -9.554688 11.820312 -8.96875 9.3125 -8.96875 L 5.171875 -8.96875 L 5.171875 0 L 2.375 0 L 2.375 -21.484375 L 9.3125 -21.484375 C 11.738281 -21.484375 13.582031 -20.894531 14.84375 -19.71875 C 16.101562 -18.550781 16.734375 -17.046875 16.734375 -15.203125 Z M 9.3125 -11.28125 C 10.875 -11.28125 12.023438 -11.617188 12.765625 -12.296875 C 13.503906 -12.972656 13.875 -13.941406 13.875 -15.203125 C 13.875 -17.847656 12.351562 -19.171875 9.3125 -19.171875 L 5.171875 -19.171875 L 5.171875 -11.28125 Z M 9.3125 -11.28125 "/></g></g></g><g fill="#ffffff" fill-opacity="1"><g transform="translate(105.534537, 200.710704)"><g><path d="M 18.921875 -21.484375 L 18.921875 0 L 16.125 0 L 16.125 -9.734375 L 5.171875 -9.734375 L 5.171875 0 L 2.375 0 L 2.375 -21.484375 L 5.171875 -21.484375 L 5.171875 -12.046875 L 16.125 -12.046875 L 16.125 -21.484375 Z M 18.921875 -21.484375 "/></g></g></g><g fill="#ffffff" fill-opacity="1"><g transform="translate(126.857691, 200.710704)"><g><path d="M 16.734375 -15.203125 C 16.734375 -13.410156 16.125 -11.921875 14.90625 -10.734375 C 13.6875 -9.554688 11.820312 -8.96875 9.3125 -8.96875 L 5.171875 -8.96875 L 5.171875 0 L 2.375 0 L 2.375 -21.484375 L 9.3125 -21.484375 C 11.738281 -21.484375 13.582031 -20.894531 14.84375 -19.71875 C 16.101562 -18.550781 16.734375 -17.046875 16.734375 -15.203125 Z M 9.3125 -11.28125 C 10.875 -11.28125 12.023438 -11.617188 12.765625 -12.296875 C 13.503906 -12.972656 13.875 -13.941406 13.875 -15.203125 C 13.875 -17.847656 12.351562 -19.171875 9.3125 -19.171875 L 5.171875 -19.171875 L 5.171875 -11.28125 Z M 9.3125 -11.28125 "/></g></g></g><g fill="#ffffff" fill-opacity="1"><g transform="translate(235.565607, 269.032029)"><g><path d="M 18.65625 -15.265625 C 18.050781 -16.515625 17.179688 -17.484375 16.046875 -18.171875 C 14.921875 -18.859375 13.609375 -19.203125 12.109375 -19.203125 C 10.609375 -19.203125 9.257812 -18.859375 8.0625 -18.171875 C 6.863281 -17.484375 5.914062 -16.492188 5.21875 -15.203125 C 4.53125 -13.921875 4.1875 -12.441406 4.1875 -10.765625 C 4.1875 -9.078125 4.53125 -7.59375 5.21875 -6.3125 C 5.914062 -5.039062 6.863281 -4.0625 8.0625 -3.375 C 9.257812 -2.6875 10.609375 -2.34375 12.109375 -2.34375 C 14.210938 -2.34375 15.941406 -2.96875 17.296875 -4.21875 C 18.648438 -5.476562 19.441406 -7.175781 19.671875 -9.3125 L 11.09375 -9.3125 L 11.09375 -11.59375 L 22.65625 -11.59375 L 22.65625 -9.4375 C 22.488281 -7.664062 21.929688 -6.046875 20.984375 -4.578125 C 20.046875 -3.109375 18.804688 -1.945312 17.265625 -1.09375 C 15.722656 -0.238281 14.003906 0.1875 12.109375 0.1875 C 10.117188 0.1875 8.300781 -0.28125 6.65625 -1.21875 C 5.007812 -2.15625 3.707031 -3.453125 2.75 -5.109375 C 1.800781 -6.773438 1.328125 -8.660156 1.328125 -10.765625 C 1.328125 -12.859375 1.800781 -14.738281 2.75 -16.40625 C 3.707031 -18.082031 5.007812 -19.390625 6.65625 -20.328125 C 8.300781 -21.265625 10.117188 -21.734375 12.109375 -21.734375 C 14.390625 -21.734375 16.410156 -21.164062 18.171875 -20.03125 C 19.929688 -18.90625 21.210938 -17.316406 22.015625 -15.265625 Z M 18.65625 -15.265625 "/></g></g></g><g fill="#ffffff" fill-opacity="1"><g transform="translate(259.538748, 269.032029)"><g><path d="M 5.171875 -21.484375 L 5.171875 0 L 2.375 0 L 2.375 -21.484375 Z M 5.171875 -21.484375 "/></g></g></g><g fill="#ffffff" fill-opacity="1"><g transform="translate(267.11895, 269.032029)"><g><path d="M 15.59375 -21.484375 L 15.59375 -19.203125 L 9.734375 -19.203125 L 9.734375 0 L 6.9375 0 L 6.9375 -19.203125 L 1.046875 -19.203125 L 1.046875 -21.484375 Z M 15.59375 -21.484375 "/></g></g></g><g fill="#ffffff" fill-opacity="1"><g transform="translate(283.789222, 269.032029)"><g><path d="M 18.921875 -21.484375 L 18.921875 0 L 16.125 0 L 16.125 -9.734375 L 5.171875 -9.734375 L 5.171875 0 L 2.375 0 L 2.375 -21.484375 L 5.171875 -21.484375 L 5.171875 -12.046875 L 16.125 -12.046875 L 16.125 -21.484375 Z M 18.921875 -21.484375 "/></g></g></g><g fill="#ffffff" fill-opacity="1"><g transform="translate(305.112376, 269.032029)"><g><path d="M 5.125 -21.484375 L 5.125 -7.890625 C 5.125 -5.984375 5.585938 -4.566406 6.515625 -3.640625 C 7.453125 -2.710938 8.753906 -2.25 10.421875 -2.25 C 12.066406 -2.25 13.351562 -2.710938 14.28125 -3.640625 C 15.21875 -4.566406 15.6875 -5.984375 15.6875 -7.890625 L 15.6875 -21.484375 L 18.5 -21.484375 L 18.5 -7.921875 C 18.5 -6.128906 18.140625 -4.625 17.421875 -3.40625 C 16.703125 -2.1875 15.726562 -1.273438 14.5 -0.671875 C 13.28125 -0.078125 11.910156 0.21875 10.390625 0.21875 C 8.867188 0.21875 7.492188 -0.078125 6.265625 -0.671875 C 5.046875 -1.273438 4.082031 -2.1875 3.375 -3.40625 C 2.664062 -4.625 2.3125 -6.128906 2.3125 -7.921875 L 2.3125 -21.484375 Z M 5.125 -21.484375 "/></g></g></g><g fill="#ffffff" fill-opacity="1"><g transform="translate(325.911701, 269.032029)"><g><path d="M 13.140625 -11.0625 C 13.910156 -10.9375 14.617188 -10.617188 15.265625 -10.109375 C 15.921875 -9.597656 16.4375 -8.960938 16.8125 -8.203125 C 17.195312 -7.441406 17.390625 -6.628906 17.390625 -5.765625 C 17.390625 -4.671875 17.109375 -3.6875 16.546875 -2.8125 C 15.992188 -1.945312 15.1875 -1.257812 14.125 -0.75 C 13.070312 -0.25 11.828125 0 10.390625 0 L 2.375 0 L 2.375 -21.484375 L 10.078125 -21.484375 C 11.535156 -21.484375 12.78125 -21.238281 13.8125 -20.75 C 14.84375 -20.269531 15.613281 -19.617188 16.125 -18.796875 C 16.632812 -17.984375 16.890625 -17.0625 16.890625 -16.03125 C 16.890625 -14.757812 16.546875 -13.707031 15.859375 -12.875 C 15.171875 -12.039062 14.265625 -11.4375 13.140625 -11.0625 Z M 5.171875 -12.203125 L 9.890625 -12.203125 C 11.210938 -12.203125 12.234375 -12.507812 12.953125 -13.125 C 13.671875 -13.75 14.03125 -14.601562 14.03125 -15.6875 C 14.03125 -16.78125 13.671875 -17.632812 12.953125 -18.25 C 12.234375 -18.863281 11.191406 -19.171875 9.828125 -19.171875 L 5.171875 -19.171875 Z M 10.140625 -2.3125 C 11.535156 -2.3125 12.625 -2.640625 13.40625 -3.296875 C 14.1875 -3.953125 14.578125 -4.867188 14.578125 -6.046875 C 14.578125 -7.234375 14.164062 -8.171875 13.34375 -8.859375 C 12.519531 -9.546875 11.421875 -9.890625 10.046875 -9.890625 L 5.171875 -9.890625 L 5.171875 -2.3125 Z M 10.140625 -2.3125 "/></g></g></g><g fill="#ffffff" fill-opacity="1"><g transform="translate(207.285726, 308.275576)"><g><path d="M 18.109375 -16.453125 C 18.109375 -14.515625 17.445312 -12.90625 16.125 -11.625 C 14.800781 -10.34375 12.785156 -9.703125 10.078125 -9.703125 L 5.609375 -9.703125 L 5.609375 0 L 2.5625 0 L 2.5625 -23.25 L 10.078125 -23.25 C 12.703125 -23.25 14.695312 -22.613281 16.0625 -21.34375 C 17.425781 -20.082031 18.109375 -18.453125 18.109375 -16.453125 Z M 10.078125 -12.203125 C 11.765625 -12.203125 13.007812 -12.566406 13.8125 -13.296875 C 14.613281 -14.035156 15.015625 -15.085938 15.015625 -16.453125 C 15.015625 -19.316406 13.367188 -20.75 10.078125 -20.75 L 5.609375 -20.75 L 5.609375 -12.203125 Z M 10.078125 -12.203125 "/></g></g></g><g fill="#ffffff" fill-opacity="1"><g transform="translate(226.592226, 308.275576)"><g><path d="M 20.484375 -23.25 L 20.484375 0 L 17.453125 0 L 17.453125 -10.546875 L 5.609375 -10.546875 L 5.609375 0 L 2.5625 0 L 2.5625 -23.25 L 5.609375 -23.25 L 5.609375 -13.046875 L 17.453125 -13.046875 L 17.453125 -23.25 Z M 20.484375 -23.25 "/></g></g></g><g fill="#ffffff" fill-opacity="1"><g transform="translate(249.666663, 308.275576)"><g><path d="M 13.109375 0.234375 C 10.953125 0.234375 8.984375 -0.269531 7.203125 -1.28125 C 5.421875 -2.289062 4.015625 -3.703125 2.984375 -5.515625 C 1.953125 -7.328125 1.4375 -9.367188 1.4375 -11.640625 C 1.4375 -13.910156 1.953125 -15.953125 2.984375 -17.765625 C 4.015625 -19.578125 5.421875 -20.988281 7.203125 -22 C 8.984375 -23.007812 10.953125 -23.515625 13.109375 -23.515625 C 15.285156 -23.515625 17.265625 -23.007812 19.046875 -22 C 20.828125 -20.988281 22.226562 -19.582031 23.25 -17.78125 C 24.269531 -15.976562 24.78125 -13.929688 24.78125 -11.640625 C 24.78125 -9.347656 24.269531 -7.300781 23.25 -5.5 C 22.226562 -3.695312 20.828125 -2.289062 19.046875 -1.28125 C 17.265625 -0.269531 15.285156 0.234375 13.109375 0.234375 Z M 13.109375 -2.40625 C 14.734375 -2.40625 16.195312 -2.78125 17.5 -3.53125 C 18.800781 -4.289062 19.820312 -5.367188 20.5625 -6.765625 C 21.3125 -8.171875 21.6875 -9.796875 21.6875 -11.640625 C 21.6875 -13.503906 21.3125 -15.128906 20.5625 -16.515625 C 19.820312 -17.910156 18.804688 -18.988281 17.515625 -19.75 C 16.222656 -20.507812 14.753906 -20.890625 13.109375 -20.890625 C 11.460938 -20.890625 9.992188 -20.507812 8.703125 -19.75 C 7.410156 -18.988281 6.390625 -17.910156 5.640625 -16.515625 C 4.898438 -15.128906 4.53125 -13.503906 4.53125 -11.640625 C 4.53125 -9.796875 4.898438 -8.171875 5.640625 -6.765625 C 6.390625 -5.367188 7.414062 -4.289062 8.71875 -3.53125 C 10.019531 -2.78125 11.484375 -2.40625 13.109375 -2.40625 Z M 13.109375 -2.40625 "/></g></g></g><g fill="#ffffff" fill-opacity="1"><g transform="translate(275.8755, 308.275576)"><g><path d="M 16.875 -23.25 L 16.875 -20.78125 L 10.546875 -20.78125 L 10.546875 0 L 7.5 0 L 7.5 -20.78125 L 1.140625 -20.78125 L 1.140625 -23.25 Z M 16.875 -23.25 "/></g></g></g><g fill="#ffffff" fill-opacity="1"><g transform="translate(293.914911, 308.275576)"><g><path d="M 13.109375 0.234375 C 10.953125 0.234375 8.984375 -0.269531 7.203125 -1.28125 C 5.421875 -2.289062 4.015625 -3.703125 2.984375 -5.515625 C 1.953125 -7.328125 1.4375 -9.367188 1.4375 -11.640625 C 1.4375 -13.910156 1.953125 -15.953125 2.984375 -17.765625 C 4.015625 -19.578125 5.421875 -20.988281 7.203125 -22 C 8.984375 -23.007812 10.953125 -23.515625 13.109375 -23.515625 C 15.285156 -23.515625 17.265625 -23.007812 19.046875 -22 C 20.828125 -20.988281 22.226562 -19.582031 23.25 -17.78125 C 24.269531 -15.976562 24.78125 -13.929688 24.78125 -11.640625 C 24.78125 -9.347656 24.269531 -7.300781 23.25 -5.5 C 22.226562 -3.695312 20.828125 -2.289062 19.046875 -1.28125 C 17.265625 -0.269531 15.285156 0.234375 13.109375 0.234375 Z M 13.109375 -2.40625 C 14.734375 -2.40625 16.195312 -2.78125 17.5 -3.53125 C 18.800781 -4.289062 19.820312 -5.367188 20.5625 -6.765625 C 21.3125 -8.171875 21.6875 -9.796875 21.6875 -11.640625 C 21.6875 -13.503906 21.3125 -15.128906 20.5625 -16.515625 C 19.820312 -17.910156 18.804688 -18.988281 17.515625 -19.75 C 16.222656 -20.507812 14.753906 -20.890625 13.109375 -20.890625 C 11.460938 -20.890625 9.992188 -20.507812 8.703125 -19.75 C 7.410156 -18.988281 6.390625 -17.910156 5.640625 -16.515625 C 4.898438 -15.128906 4.53125 -13.503906 4.53125 -11.640625 C 4.53125 -9.796875 4.898438 -8.171875 5.640625 -6.765625 C 6.390625 -5.367188 7.414062 -4.289062 8.71875 -3.53125 C 10.019531 -2.78125 11.484375 -2.40625 13.109375 -2.40625 Z M 13.109375 -2.40625 "/></g></g></g><g fill="#ffffff" fill-opacity="1"><g transform="translate(320.123747, 308.275576)"><g><path d="M 9.9375 0.234375 C 8.40625 0.234375 7.03125 -0.0351562 5.8125 -0.578125 C 4.601562 -1.128906 3.65625 -1.882812 2.96875 -2.84375 C 2.28125 -3.8125 1.925781 -4.929688 1.90625 -6.203125 L 5.140625 -6.203125 C 5.242188 -5.109375 5.691406 -4.1875 6.484375 -3.4375 C 7.273438 -2.695312 8.425781 -2.328125 9.9375 -2.328125 C 11.382812 -2.328125 12.523438 -2.6875 13.359375 -3.40625 C 14.191406 -4.132812 14.609375 -5.066406 14.609375 -6.203125 C 14.609375 -7.097656 14.363281 -7.820312 13.875 -8.375 C 13.382812 -8.925781 12.769531 -9.347656 12.03125 -9.640625 C 11.300781 -9.929688 10.316406 -10.242188 9.078125 -10.578125 C 7.535156 -10.972656 6.300781 -11.367188 5.375 -11.765625 C 4.457031 -12.171875 3.671875 -12.800781 3.015625 -13.65625 C 2.359375 -14.507812 2.03125 -15.660156 2.03125 -17.109375 C 2.03125 -18.378906 2.351562 -19.503906 3 -20.484375 C 3.644531 -21.460938 4.550781 -22.21875 5.71875 -22.75 C 6.882812 -23.28125 8.222656 -23.546875 9.734375 -23.546875 C 11.921875 -23.546875 13.707031 -23 15.09375 -21.90625 C 16.488281 -20.820312 17.273438 -19.378906 17.453125 -17.578125 L 14.109375 -17.578125 C 13.992188 -18.472656 13.523438 -19.257812 12.703125 -19.9375 C 11.878906 -20.613281 10.789062 -20.953125 9.4375 -20.953125 C 8.175781 -20.953125 7.144531 -20.625 6.34375 -19.96875 C 5.539062 -19.3125 5.140625 -18.394531 5.140625 -17.21875 C 5.140625 -16.375 5.378906 -15.679688 5.859375 -15.140625 C 6.335938 -14.609375 6.925781 -14.203125 7.625 -13.921875 C 8.320312 -13.648438 9.304688 -13.335938 10.578125 -12.984375 C 12.109375 -12.554688 13.335938 -12.132812 14.265625 -11.71875 C 15.203125 -11.3125 16.003906 -10.679688 16.671875 -9.828125 C 17.347656 -8.972656 17.6875 -7.8125 17.6875 -6.34375 C 17.6875 -5.207031 17.382812 -4.140625 16.78125 -3.140625 C 16.175781 -2.140625 15.285156 -1.328125 14.109375 -0.703125 C 12.929688 -0.078125 11.539062 0.234375 9.9375 0.234375 Z M 9.9375 0.234375 "/></g></g></g><g fill="#ffffff" fill-opacity="1"><g transform="translate(339.697015, 308.275576)"><g><path d="M 20.484375 -23.25 L 20.484375 0 L 17.453125 0 L 17.453125 -10.546875 L 5.609375 -10.546875 L 5.609375 0 L 2.5625 0 L 2.5625 -23.25 L 5.609375 -23.25 L 5.609375 -13.046875 L 17.453125 -13.046875 L 17.453125 -23.25 Z M 20.484375 -23.25 "/></g></g></g><g fill="#ffffff" fill-opacity="1"><g transform="translate(362.771452, 308.275576)"><g><path d="M 13.109375 0.234375 C 10.953125 0.234375 8.984375 -0.269531 7.203125 -1.28125 C 5.421875 -2.289062 4.015625 -3.703125 2.984375 -5.515625 C 1.953125 -7.328125 1.4375 -9.367188 1.4375 -11.640625 C 1.4375 -13.910156 1.953125 -15.953125 2.984375 -17.765625 C 4.015625 -19.578125 5.421875 -20.988281 7.203125 -22 C 8.984375 -23.007812 10.953125 -23.515625 13.109375 -23.515625 C 15.285156 -23.515625 17.265625 -23.007812 19.046875 -22 C 20.828125 -20.988281 22.226562 -19.582031 23.25 -17.78125 C 24.269531 -15.976562 24.78125 -13.929688 24.78125 -11.640625 C 24.78125 -9.347656 24.269531 -7.300781 23.25 -5.5 C 22.226562 -3.695312 20.828125 -2.289062 19.046875 -1.28125 C 17.265625 -0.269531 15.285156 0.234375 13.109375 0.234375 Z M 13.109375 -2.40625 C 14.734375 -2.40625 16.195312 -2.78125 17.5 -3.53125 C 18.800781 -4.289062 19.820312 -5.367188 20.5625 -6.765625 C 21.3125 -8.171875 21.6875 -9.796875 21.6875 -11.640625 C 21.6875 -13.503906 21.3125 -15.128906 20.5625 -16.515625 C 19.820312 -17.910156 18.804688 -18.988281 17.515625 -19.75 C 16.222656 -20.507812 14.753906 -20.890625 13.109375 -20.890625 C 11.460938 -20.890625 9.992188 -20.507812 8.703125 -19.75 C 7.410156 -18.988281 6.390625 -17.910156 5.640625 -16.515625 C 4.898438 -15.128906 4.53125 -13.503906 4.53125 -11.640625 C 4.53125 -9.796875 4.898438 -8.171875 5.640625 -6.765625 C 6.390625 -5.367188 7.414062 -4.289062 8.71875 -3.53125 C 10.019531 -2.78125 11.484375 -2.40625 13.109375 -2.40625 Z M 13.109375 -2.40625 "/></g></g></g><g fill="#ffffff" fill-opacity="1"><g transform="translate(388.980289, 308.275576)"><g><path d="M 18.109375 -16.453125 C 18.109375 -14.515625 17.445312 -12.90625 16.125 -11.625 C 14.800781 -10.34375 12.785156 -9.703125 10.078125 -9.703125 L 5.609375 -9.703125 L 5.609375 0 L 2.5625 0 L 2.5625 -23.25 L 10.078125 -23.25 C 12.703125 -23.25 14.695312 -22.613281 16.0625 -21.34375 C 17.425781 -20.082031 18.109375 -18.453125 18.109375 -16.453125 Z M 10.078125 -12.203125 C 11.765625 -12.203125 13.007812 -12.566406 13.8125 -13.296875 C 14.613281 -14.035156 15.015625 -15.085938 15.015625 -16.453125 C 15.015625 -19.316406 13.367188 -20.75 10.078125 -20.75 L 5.609375 -20.75 L 5.609375 -12.203125 Z M 10.078125 -12.203125 "/></g></g></g><g fill="#ffffff" fill-opacity="1"><g transform="translate(80.01914, 275.643244)"><g><path d="M 16.734375 -15.203125 C 16.734375 -13.410156 16.125 -11.921875 14.90625 -10.734375 C 13.6875 -9.554688 11.820312 -8.96875 9.3125 -8.96875 L 5.171875 -8.96875 L 5.171875 0 L 2.375 0 L 2.375 -21.484375 L 9.3125 -21.484375 C 11.738281 -21.484375 13.582031 -20.894531 14.84375 -19.71875 C 16.101562 -18.550781 16.734375 -17.046875 16.734375 -15.203125 Z M 9.3125 -11.28125 C 10.875 -11.28125 12.023438 -11.617188 12.765625 -12.296875 C 13.503906 -12.972656 13.875 -13.941406 13.875 -15.203125 C 13.875 -17.847656 12.351562 -19.171875 9.3125 -19.171875 L 5.171875 -19.171875 L 5.171875 -11.28125 Z M 9.3125 -11.28125 "/></g></g></g><g fill="#ffffff" fill-opacity="1"><g transform="translate(97.860332, 275.643244)"><g><path d="M 5.171875 -2.28125 L 12.703125 -2.28125 L 12.703125 0 L 2.375 0 L 2.375 -21.484375 L 5.171875 -21.484375 Z M 5.171875 -2.28125 "/></g></g></g><g fill="#ffffff" fill-opacity="1"><g transform="translate(111.171902, 275.643244)"><g><path d="M 5.171875 -19.203125 L 5.171875 -12.015625 L 13.015625 -12.015625 L 13.015625 -9.703125 L 5.171875 -9.703125 L 5.171875 -2.3125 L 13.9375 -2.3125 L 13.9375 0 L 2.375 0 L 2.375 -21.515625 L 13.9375 -21.515625 L 13.9375 -19.203125 Z M 5.171875 -19.203125 "/></g></g></g><g fill="#ffffff" fill-opacity="1"><g transform="translate(126.979387, 275.643244)"><g><path d="M 9.1875 0.21875 C 7.769531 0.21875 6.5 -0.03125 5.375 -0.53125 C 4.257812 -1.039062 3.378906 -1.742188 2.734375 -2.640625 C 2.097656 -3.535156 1.769531 -4.566406 1.75 -5.734375 L 4.75 -5.734375 C 4.851562 -4.722656 5.269531 -3.875 6 -3.1875 C 6.726562 -2.5 7.789062 -2.15625 9.1875 -2.15625 C 10.519531 -2.15625 11.570312 -2.488281 12.34375 -3.15625 C 13.113281 -3.820312 13.5 -4.679688 13.5 -5.734375 C 13.5 -6.554688 13.269531 -7.222656 12.8125 -7.734375 C 12.363281 -8.253906 11.800781 -8.644531 11.125 -8.90625 C 10.445312 -9.175781 9.535156 -9.460938 8.390625 -9.765625 C 6.972656 -10.140625 5.835938 -10.507812 4.984375 -10.875 C 4.128906 -11.25 3.394531 -11.832031 2.78125 -12.625 C 2.175781 -13.414062 1.875 -14.476562 1.875 -15.8125 C 1.875 -16.988281 2.171875 -18.023438 2.765625 -18.921875 C 3.367188 -19.828125 4.207031 -20.523438 5.28125 -21.015625 C 6.363281 -21.515625 7.601562 -21.765625 9 -21.765625 C 11.007812 -21.765625 12.65625 -21.257812 13.9375 -20.25 C 15.226562 -19.25 15.957031 -17.914062 16.125 -16.25 L 13.046875 -16.25 C 12.941406 -17.070312 12.507812 -17.796875 11.75 -18.421875 C 10.988281 -19.046875 9.976562 -19.359375 8.71875 -19.359375 C 7.550781 -19.359375 6.597656 -19.054688 5.859375 -18.453125 C 5.117188 -17.847656 4.75 -17 4.75 -15.90625 C 4.75 -15.125 4.96875 -14.484375 5.40625 -13.984375 C 5.851562 -13.492188 6.398438 -13.117188 7.046875 -12.859375 C 7.691406 -12.609375 8.597656 -12.316406 9.765625 -11.984375 C 11.191406 -11.597656 12.332031 -11.210938 13.1875 -10.828125 C 14.050781 -10.453125 14.789062 -9.867188 15.40625 -9.078125 C 16.03125 -8.285156 16.34375 -7.210938 16.34375 -5.859375 C 16.34375 -4.804688 16.0625 -3.816406 15.5 -2.890625 C 14.945312 -1.972656 14.125 -1.222656 13.03125 -0.640625 C 11.945312 -0.0664062 10.664062 0.21875 9.1875 0.21875 Z M 9.1875 0.21875 "/></g></g></g><g fill="#ffffff" fill-opacity="1"><g transform="translate(145.0671, 275.643244)"><g><path d="M 14.03125 0 L 5.171875 -9.796875 L 5.171875 0 L 2.375 0 L 2.375 -21.484375 L 5.171875 -21.484375 L 5.171875 -11.53125 L 14.0625 -21.484375 L 17.609375 -21.484375 L 7.859375 -10.734375 L 17.703125 0 Z M 14.03125 0 "/></g></g></g><g fill="#ffffff" fill-opacity="1"><g transform="translate(117.836959, 119.307101)"><g><path d="M 25.53125 -22.53125 L 25.53125 0 L 22.5625 0 L 22.5625 -16.796875 L 15.078125 0 L 13 0 L 5.46875 -16.828125 L 5.46875 0 L 2.5 0 L 2.5 -22.53125 L 5.703125 -22.53125 L 14.03125 -3.90625 L 22.375 -22.53125 Z M 25.53125 -22.53125 "/></g></g></g><g fill="#ffffff" fill-opacity="1"><g transform="translate(145.867675, 119.307101)"><g><path d="M 17.875 -17.84375 L 7.125 8.40625 L 4.0625 8.40625 L 7.59375 -0.203125 L 0.390625 -17.84375 L 3.671875 -17.84375 L 9.28125 -3.390625 L 14.8125 -17.84375 Z M 17.875 -17.84375 "/></g></g></g><g fill="#ffffff" fill-opacity="1"><g transform="translate(164.1967, 119.307101)"><g><path d="M 9.703125 0.234375 C 8.203125 0.234375 6.859375 -0.03125 5.671875 -0.5625 C 4.492188 -1.101562 3.566406 -1.84375 2.890625 -2.78125 C 2.222656 -3.726562 1.878906 -4.820312 1.859375 -6.0625 L 5.015625 -6.0625 C 5.117188 -5 5.554688 -4.101562 6.328125 -3.375 C 7.097656 -2.644531 8.222656 -2.28125 9.703125 -2.28125 C 11.109375 -2.28125 12.21875 -2.628906 13.03125 -3.328125 C 13.851562 -4.035156 14.265625 -4.945312 14.265625 -6.0625 C 14.265625 -6.925781 14.023438 -7.628906 13.546875 -8.171875 C 13.066406 -8.710938 12.46875 -9.125 11.75 -9.40625 C 11.039062 -9.6875 10.078125 -9.992188 8.859375 -10.328125 C 7.359375 -10.710938 6.15625 -11.097656 5.25 -11.484375 C 4.351562 -11.878906 3.582031 -12.492188 2.9375 -13.328125 C 2.300781 -14.171875 1.984375 -15.296875 1.984375 -16.703125 C 1.984375 -17.941406 2.296875 -19.035156 2.921875 -19.984375 C 3.554688 -20.941406 4.441406 -21.679688 5.578125 -22.203125 C 6.722656 -22.722656 8.035156 -22.984375 9.515625 -22.984375 C 11.640625 -22.984375 13.378906 -22.453125 14.734375 -21.390625 C 16.085938 -20.328125 16.851562 -18.914062 17.03125 -17.15625 L 13.78125 -17.15625 C 13.664062 -18.03125 13.207031 -18.796875 12.40625 -19.453125 C 11.601562 -20.117188 10.539062 -20.453125 9.21875 -20.453125 C 7.976562 -20.453125 6.96875 -20.128906 6.1875 -19.484375 C 5.40625 -18.847656 5.015625 -17.953125 5.015625 -16.796875 C 5.015625 -15.972656 5.25 -15.300781 5.71875 -14.78125 C 6.1875 -14.257812 6.757812 -13.863281 7.4375 -13.59375 C 8.125 -13.320312 9.085938 -13.015625 10.328125 -12.671875 C 11.816406 -12.253906 13.015625 -11.84375 13.921875 -11.4375 C 14.835938 -11.039062 15.625 -10.425781 16.28125 -9.59375 C 16.9375 -8.757812 17.265625 -7.625 17.265625 -6.1875 C 17.265625 -5.082031 16.96875 -4.039062 16.375 -3.0625 C 15.789062 -2.082031 14.921875 -1.285156 13.765625 -0.671875 C 12.617188 -0.0664062 11.265625 0.234375 9.703125 0.234375 Z M 9.703125 0.234375 "/></g></g></g><g fill="#ffffff" fill-opacity="1"><g transform="translate(183.307076, 119.307101)"><g><path d="M 20.703125 4.296875 L 16.1875 -0.234375 C 15.070312 0.078125 13.941406 0.234375 12.796875 0.234375 C 10.691406 0.234375 8.769531 -0.257812 7.03125 -1.25 C 5.289062 -2.238281 3.914062 -3.617188 2.90625 -5.390625 C 1.90625 -7.160156 1.40625 -9.148438 1.40625 -11.359375 C 1.40625 -13.578125 1.90625 -15.570312 2.90625 -17.34375 C 3.914062 -19.113281 5.289062 -20.488281 7.03125 -21.46875 C 8.769531 -22.457031 10.691406 -22.953125 12.796875 -22.953125 C 14.921875 -22.953125 16.851562 -22.457031 18.59375 -21.46875 C 20.332031 -20.488281 21.695312 -19.117188 22.6875 -17.359375 C 23.6875 -15.597656 24.1875 -13.597656 24.1875 -11.359375 C 24.1875 -9.191406 23.707031 -7.238281 22.75 -5.5 C 21.800781 -3.757812 20.492188 -2.394531 18.828125 -1.40625 L 24.546875 4.296875 Z M 4.421875 -11.359375 C 4.421875 -9.554688 4.785156 -7.972656 5.515625 -6.609375 C 6.242188 -5.242188 7.242188 -4.191406 8.515625 -3.453125 C 9.785156 -2.710938 11.210938 -2.34375 12.796875 -2.34375 C 14.378906 -2.34375 15.804688 -2.710938 17.078125 -3.453125 C 18.347656 -4.191406 19.347656 -5.242188 20.078125 -6.609375 C 20.804688 -7.972656 21.171875 -9.554688 21.171875 -11.359375 C 21.171875 -13.179688 20.804688 -14.769531 20.078125 -16.125 C 19.347656 -17.488281 18.351562 -18.539062 17.09375 -19.28125 C 15.832031 -20.019531 14.398438 -20.390625 12.796875 -20.390625 C 11.191406 -20.390625 9.757812 -20.019531 8.5 -19.28125 C 7.238281 -18.539062 6.242188 -17.488281 5.515625 -16.125 C 4.785156 -14.769531 4.421875 -13.179688 4.421875 -11.359375 Z M 4.421875 -11.359375 "/></g></g></g><g fill="#ffffff" fill-opacity="1"><g transform="translate(208.961201, 119.307101)"><g><path d="M 5.46875 -2.40625 L 13.421875 -2.40625 L 13.421875 0 L 2.5 0 L 2.5 -22.703125 L 5.46875 -22.703125 Z M 5.46875 -2.40625 "/></g></g></g></svg>