<svg xmlns="http://www.w3.org/2000/svg" xmlns:xlink="http://www.w3.org/1999/xlink" width="256" zoomAndPan="magnify" viewBox="0 0 192 191.999996" height="256" preserveAspectRatio="xMidYMid meet" version="1.0"><defs><clipPath id="5ded615b55"><path d="M 121 40.5625 L 172.949219 40.5625 L 172.949219 151.5625 L 121 151.5625 Z M 121 40.5625 " clip-rule="nonzero"/></clipPath><clipPath id="3ee2474e2c"><path d="M 19.199219 40.5625 L 71 40.5625 L 71 151.5625 L 19.199219 151.5625 Z M 19.199219 40.5625 " clip-rule="nonzero"/></clipPath><clipPath id="e238bbb63c"><path d="M 70 40.5625 L 122 40.5625 L 122 151.5625 L 70 151.5625 Z M 70 40.5625 " clip-rule="nonzero"/></clipPath></defs><g clip-path="url(#5ded615b55)"><path fill="#ed2939" d="M 172.90625 134.488281 C 172.90625 143.917969 165.261719 151.5625 155.835938 151.5625 L 121.6875 151.5625 L 121.6875 40.5625 L 155.835938 40.5625 C 165.261719 40.5625 172.90625 48.210938 172.90625 57.640625 Z M 172.90625 134.488281 " fill-opacity="1" fill-rule="nonzero"/></g><g clip-path="url(#3ee2474e2c)"><path fill="#002495" d="M 36.316406 40.5625 C 26.886719 40.5625 19.242188 48.210938 19.242188 57.640625 L 19.242188 134.488281 C 19.242188 143.917969 26.886719 151.5625 36.316406 151.5625 L 70.464844 151.5625 L 70.464844 40.5625 Z M 36.316406 40.5625 " fill-opacity="1" fill-rule="nonzero"/></g><g clip-path="url(#e238bbb63c)"><path fill="#eeeeee" d="M 70.464844 40.5625 L 121.6875 40.5625 L 121.6875 151.5625 L 70.464844 151.5625 Z M 70.464844 40.5625 " fill-opacity="1" fill-rule="nonzero"/></g></svg>