<svg xmlns="http://www.w3.org/2000/svg" xmlns:xlink="http://www.w3.org/1999/xlink" width="256" zoomAndPan="magnify" viewBox="0 0 192 191.999996" height="256" preserveAspectRatio="xMidYMid meet" version="1.0"><defs><clipPath id="d1100e1165"><path d="M 19.199219 40.5625 L 172.949219 40.5625 L 172.949219 151.5625 L 19.199219 151.5625 Z M 19.199219 40.5625 " clip-rule="nonzero"/></clipPath><clipPath id="24e7a781db"><path d="M 19.199219 49 L 172.949219 49 L 172.949219 144 L 19.199219 144 Z M 19.199219 49 " clip-rule="nonzero"/></clipPath><clipPath id="bf9ccdc686"><path d="M 19.199219 40.5625 L 97 40.5625 L 97 101 L 19.199219 101 Z M 19.199219 40.5625 " clip-rule="nonzero"/></clipPath></defs><g clip-path="url(#d1100e1165)"><path fill="#b22334" d="M 170.539062 49.101562 C 167.582031 44.019531 162.136719 40.5625 155.835938 40.5625 L 96.074219 40.5625 L 96.074219 49.101562 Z M 19.242188 125.949219 L 172.90625 125.949219 L 172.90625 134.488281 L 19.242188 134.488281 Z M 96.074219 91.796875 L 172.90625 91.796875 L 172.90625 100.332031 L 96.074219 100.332031 Z M 96.074219 74.71875 L 172.90625 74.71875 L 172.90625 83.257812 L 96.074219 83.257812 Z M 19.242188 108.871094 L 172.90625 108.871094 L 172.90625 117.410156 L 19.242188 117.410156 Z M 36.316406 151.5625 L 155.835938 151.5625 C 162.136719 151.5625 167.582031 148.109375 170.539062 143.027344 L 21.609375 143.027344 C 24.570312 148.109375 30.011719 151.5625 36.316406 151.5625 Z M 96.074219 57.640625 L 172.90625 57.640625 L 172.90625 66.179688 L 96.074219 66.179688 Z M 96.074219 57.640625 " fill-opacity="1" fill-rule="nonzero"/></g><g clip-path="url(#24e7a781db)"><path fill="#eeeeee" d="M 19.53125 137.386719 C 19.605469 137.785156 19.6875 138.179688 19.785156 138.570312 C 19.894531 139 20.03125 139.414062 20.175781 139.832031 C 20.558594 140.9375 21.019531 142.003906 21.597656 143.003906 L 21.609375 143.027344 L 170.539062 143.027344 L 170.546875 143.007812 C 171.125 142.015625 171.585938 140.945312 171.964844 139.84375 C 172.109375 139.421875 172.25 139 172.363281 138.558594 C 172.460938 138.175781 172.539062 137.785156 172.613281 137.386719 C 172.789062 136.445312 172.90625 135.480469 172.90625 134.488281 L 19.242188 134.488281 C 19.242188 135.480469 19.363281 136.441406 19.53125 137.386719 Z M 19.242188 117.410156 L 172.90625 117.410156 L 172.90625 125.949219 L 19.242188 125.949219 Z M 19.242188 100.332031 L 19.242188 108.871094 L 172.90625 108.871094 L 172.90625 100.332031 Z M 96.074219 83.257812 L 172.90625 83.257812 L 172.90625 91.796875 L 96.074219 91.796875 Z M 96.074219 66.179688 L 172.90625 66.179688 L 172.90625 74.71875 L 96.074219 74.71875 Z M 19.242188 57.640625 C 19.242188 56.648438 19.371094 55.691406 19.53125 54.742188 C 19.363281 55.6875 19.242188 56.648438 19.242188 57.640625 Z M 21.609375 49.101562 L 21.597656 49.125 Z M 19.789062 53.558594 C 19.894531 53.125 20.042969 52.710938 20.179688 52.292969 C 20.035156 52.710938 19.898438 53.128906 19.789062 53.558594 Z M 96.074219 57.640625 L 172.90625 57.640625 C 172.90625 56.648438 172.789062 55.683594 172.613281 54.738281 C 172.539062 54.34375 172.464844 53.953125 172.363281 53.570312 C 172.246094 53.128906 172.109375 52.703125 171.960938 52.277344 C 171.582031 51.175781 171.121094 50.113281 170.542969 49.121094 C 170.546875 49.117188 170.542969 49.105469 170.539062 49.101562 L 96.074219 49.101562 Z M 96.074219 57.640625 " fill-opacity="1" fill-rule="nonzero"/></g><g clip-path="url(#bf9ccdc686)"><path fill="#3c3b6e" d="M 96.074219 40.5625 L 36.316406 40.5625 C 26.886719 40.5625 19.242188 48.210938 19.242188 57.640625 L 19.242188 100.332031 L 96.074219 100.332031 Z M 96.074219 40.5625 " fill-opacity="1" fill-rule="nonzero"/></g><path fill="#ffffff" d="M 27.785156 52.203125 L 30.421875 54.121094 L 29.414062 57.214844 L 32.046875 55.300781 L 34.683594 57.214844 L 33.679688 54.121094 L 36.316406 52.203125 L 33.054688 52.203125 L 32.046875 49.101562 L 31.042969 52.203125 Z M 36.320312 60.742188 L 38.957031 62.65625 L 37.949219 65.753906 L 40.585938 63.839844 L 43.222656 65.753906 L 42.214844 62.65625 L 44.851562 60.742188 L 41.59375 60.742188 L 40.585938 57.640625 L 39.582031 60.742188 Z M 53.394531 60.742188 L 56.03125 62.65625 L 55.023438 65.753906 L 57.660156 63.839844 L 60.296875 65.753906 L 59.289062 62.65625 L 61.925781 60.742188 L 58.664062 60.742188 L 57.660156 57.640625 L 56.65625 60.742188 Z M 70.46875 60.742188 L 73.105469 62.65625 L 72.097656 65.753906 L 74.734375 63.839844 L 77.371094 65.753906 L 76.363281 62.65625 L 79 60.742188 L 75.738281 60.742188 L 74.734375 57.640625 L 73.730469 60.742188 Z M 36.320312 77.816406 L 38.957031 79.734375 L 37.949219 82.828125 L 40.585938 80.917969 L 43.222656 82.828125 L 42.214844 79.734375 L 44.851562 77.816406 L 41.59375 77.816406 L 40.585938 74.71875 L 39.582031 77.816406 Z M 53.394531 77.816406 L 56.03125 79.734375 L 55.023438 82.828125 L 57.660156 80.917969 L 60.296875 82.828125 L 59.289062 79.734375 L 61.925781 77.816406 L 58.664062 77.816406 L 57.660156 74.71875 L 56.65625 77.816406 Z M 70.46875 77.816406 L 73.105469 79.734375 L 72.097656 82.828125 L 74.734375 80.917969 L 77.371094 82.828125 L 76.363281 79.734375 L 79 77.816406 L 75.738281 77.816406 L 74.734375 74.71875 L 73.730469 77.816406 Z M 44.855469 52.203125 L 47.496094 54.121094 L 46.488281 57.214844 L 49.121094 55.300781 L 51.757812 57.214844 L 50.753906 54.121094 L 53.390625 52.203125 L 50.128906 52.203125 L 49.121094 49.101562 L 48.117188 52.203125 Z M 61.929688 52.203125 L 64.570312 54.121094 L 63.5625 57.214844 L 66.195312 55.300781 L 68.832031 57.214844 L 67.824219 54.121094 L 70.464844 52.203125 L 67.203125 52.203125 L 66.195312 49.101562 L 65.191406 52.203125 Z M 79.003906 52.203125 L 81.644531 54.121094 L 80.636719 57.214844 L 83.269531 55.300781 L 85.90625 57.214844 L 84.898438 54.121094 L 87.539062 52.203125 L 84.277344 52.203125 L 83.269531 49.101562 L 82.265625 52.203125 Z M 27.785156 69.277344 L 30.421875 71.195312 L 29.414062 74.292969 L 32.046875 72.378906 L 34.683594 74.292969 L 33.679688 71.195312 L 36.316406 69.277344 L 33.054688 69.277344 L 32.046875 66.179688 L 31.042969 69.277344 Z M 46.488281 74.292969 L 49.121094 72.378906 L 51.757812 74.292969 L 50.753906 71.195312 L 53.390625 69.277344 L 50.128906 69.277344 L 49.121094 66.179688 L 48.117188 69.277344 L 44.855469 69.277344 L 47.496094 71.195312 Z M 61.929688 69.277344 L 64.570312 71.195312 L 63.5625 74.292969 L 66.195312 72.378906 L 68.832031 74.292969 L 67.824219 71.195312 L 70.464844 69.277344 L 67.203125 69.277344 L 66.195312 66.179688 L 65.191406 69.277344 Z M 79.003906 69.277344 L 81.644531 71.195312 L 80.636719 74.292969 L 83.269531 72.378906 L 85.90625 74.292969 L 84.898438 71.195312 L 87.539062 69.277344 L 84.277344 69.277344 L 83.269531 66.179688 L 82.265625 69.277344 Z M 27.785156 86.355469 L 30.421875 88.273438 L 29.414062 91.367188 L 32.046875 89.457031 L 34.683594 91.367188 L 33.679688 88.273438 L 36.316406 86.355469 L 33.054688 86.355469 L 32.046875 83.257812 L 31.042969 86.355469 Z M 46.488281 91.367188 L 49.121094 89.457031 L 51.757812 91.367188 L 50.753906 88.273438 L 53.390625 86.355469 L 50.128906 86.355469 L 49.121094 83.257812 L 48.117188 86.355469 L 44.855469 86.355469 L 47.496094 88.273438 Z M 61.929688 86.355469 L 64.570312 88.273438 L 63.5625 91.367188 L 66.195312 89.457031 L 68.832031 91.367188 L 67.824219 88.273438 L 70.464844 86.355469 L 67.203125 86.355469 L 66.195312 83.257812 L 65.191406 86.355469 Z M 79.003906 86.355469 L 81.644531 88.273438 L 80.636719 91.367188 L 83.269531 89.457031 L 85.90625 91.367188 L 84.898438 88.273438 L 87.539062 86.355469 L 84.277344 86.355469 L 83.269531 83.257812 L 82.265625 86.355469 Z M 79.003906 86.355469 " fill-opacity="1" fill-rule="nonzero"/></svg>